HIERARCHY
ROOT RootJoint
{
    OFFSET   0.000000   0.000000   0.000000
    CHANNELS 6 Xposition Yposition Zposition Xrotation Yrotation Zrotation
    JOINT pelvis_lowerback
    {
        OFFSET   0.000000   0.093605   0.000000
        CHANNELS 3 Xrotation Yrotation Zrotation
        JOINT lowerback_torso
        {
            OFFSET   0.000000   0.100000   0.000000
            CHANNELS 3 Xrotation Yrotation Zrotation
            JOINT torso_head
            {
                OFFSET   0.000000   0.282350   0.000000
                CHANNELS 3 Xrotation Yrotation Zrotation
                End Site
                {
                    OFFSET   0.000000   0.192650   0.000000
                }
            }
            JOINT rTorso_Clavicle
            {
                OFFSET  -0.001000   0.157500   0.000000
                CHANNELS 3 Xrotation Yrotation Zrotation
                JOINT rShoulder
                {
                    OFFSET  -0.117647   0.000000   0.000000
                    CHANNELS 3 Xrotation Yrotation Zrotation
                    JOINT rElbow
                    {
                        OFFSET  -0.245000   0.000000   0.000000
                        CHANNELS 3 Xrotation Yrotation Zrotation
                        JOINT rWrist
                        {
                            OFFSET  -0.240000   0.000000   0.000000
                            CHANNELS 3 Xrotation Yrotation Zrotation
                            End Site
                            {
                                OFFSET  -0.116353  -0.002500   0.000000
                            }
                        }
                    }
                }
            }
            JOINT lTorso_Clavicle
            {
                OFFSET   0.001000   0.157500   0.000000
                CHANNELS 3 Xrotation Yrotation Zrotation
                JOINT lShoulder
                {
                    OFFSET   0.117647   0.000000   0.000000
                    CHANNELS 3 Xrotation Yrotation Zrotation
                    JOINT lElbow
                    {
                        OFFSET   0.245000   0.000000   0.000000
                        CHANNELS 3 Xrotation Yrotation Zrotation
                        JOINT lWrist
                        {
                            OFFSET   0.240000   0.000000   0.000000
                            CHANNELS 3 Xrotation Yrotation Zrotation
                            End Site
                            {
                                OFFSET   0.116353  -0.002500   0.000000
                            }
                        }
                    }
                }
            }
        }
    }
    JOINT rHip
    {
        OFFSET  -0.100000  -0.051395   0.000000
        CHANNELS 3 Xrotation Yrotation Zrotation
        JOINT rKnee
        {
            OFFSET   0.000000  -0.410000   0.000000
            CHANNELS 3 Xrotation Yrotation Zrotation
            JOINT rAnkle
            {
                OFFSET   0.000000  -0.390000   0.000000
                CHANNELS 3 Xrotation Yrotation Zrotation
                JOINT rToeJoint
                {
                    OFFSET   0.000000  -0.050000   0.130000
                    CHANNELS 3 Xrotation Yrotation Zrotation
                    End Site
                    {
                        OFFSET  -0.010000   0.002000   0.060000
                    }
                }
            }
        }
    }
    JOINT lHip
    {
        OFFSET   0.100000  -0.051395   0.000000
        CHANNELS 3 Xrotation Yrotation Zrotation
        JOINT lKnee
        {
            OFFSET   0.000000  -0.410000   0.000000
            CHANNELS 3 Xrotation Yrotation Zrotation
            JOINT lAnkle
            {
                OFFSET   0.000000  -0.390000   0.000000
                CHANNELS 3 Xrotation Yrotation Zrotation
                JOINT lToeJoint
                {
                    OFFSET   0.000000  -0.050000   0.130000
                    CHANNELS 3 Xrotation Yrotation Zrotation
                    End Site
                    {
                        OFFSET   0.010000   0.002000   0.060000
                    }
                }
            }
        }
    }
}
MOTION
Frames: 14
Frame Time:   0.008333
 -2.367662   0.694186   3.926951  31.506663 -12.206121   6.671742  47.453168   1.704333   3.602025  -3.625328  -2.024524   3.220543 -17.768629   1.715992  -4.609379  -2.262578  12.616096  11.500190  -9.139141  -0.199928  29.964851   0.003864  33.398336  -0.013002  -0.031696   2.214369 -12.469864  -3.128854 -15.319815 -11.752436  -0.165659  -4.444246 -35.183609   0.010718 -34.421952   0.014532  -1.701315  -6.044027  12.326563 -82.668181  -1.867610  -4.966951  84.840398  -0.000346  -0.000014 -32.635911  -4.881192  -0.851020  -0.410152  -0.001853  -0.000146 -77.916582   7.419309  12.938301  92.396248   0.000022  -0.000061 -33.360848   6.233092   3.064673 -17.586333   0.004575   0.018143
 -2.368188   0.696320   3.930147  30.912866 -12.292635   6.689875  47.258020   1.733619   3.526180  -3.442296  -2.046126   3.112893 -17.912738   1.678965  -4.668078  -3.055301  14.163495  11.605314 -11.327136   0.963120  29.079776  -0.000298  33.637115  -0.007434  -0.484210   1.149763 -11.926325  -3.836173 -16.371136 -11.875629  -1.935534  -5.504173 -34.086270   0.011731 -34.254268   0.013514  -2.108301  -5.300600  11.341344 -81.616009  -1.735221  -4.974107  84.639178  -0.000328   0.000019 -32.986819  -4.885536  -1.043690  -0.116238  -0.000921  -0.000118 -76.972646   7.313581  12.776653  92.335846   0.000190  -0.000002 -32.502208   6.174250   2.777363 -19.364781   0.002131   0.020281
 -2.368702   0.698464   3.933125  30.335877 -12.357164   6.699645  47.023907   1.765978   3.447592  -3.356745  -2.051729   3.003683 -17.988761   1.636821  -4.729835  -3.972458  15.797989  11.566105 -13.485612   2.261585  28.163219  -0.005326  33.943587  -0.001980  -0.858239   0.429723 -11.597972  -4.684437 -17.500767 -11.819308  -3.705349  -6.649074 -32.896500   0.011580 -34.157991   0.012044  -2.445576  -4.793434  10.653121 -80.592551  -1.612697  -4.993328  84.422347  -0.000323   0.000028 -33.320752  -4.900268  -1.227047   0.387736   0.000168  -0.000113 -76.069188   7.211122  12.609995  92.254865   0.000365   0.000055 -31.685362   6.104313   2.507222 -20.847084   0.000275   0.020655
 -2.369258   0.700426   3.936046  29.797141 -12.399695   6.705026  46.732088   1.807121   3.366253  -3.406963  -2.039409   2.893376 -18.054008   1.596941  -4.789835  -4.935261  17.452444  11.454680 -15.557511   3.616830  27.280562  -0.010213  34.274368   0.002891  -1.158421   0.009703 -11.422080  -5.591335 -18.659165 -11.671361  -5.417359  -7.832013 -31.711504   0.010608 -34.104366   0.010410  -2.720628  -4.514637  10.217028 -79.629306  -1.500696  -5.022917  84.228948  -0.000317   0.000018 -33.633472  -4.922800  -1.399192   0.386405   0.000132  -0.000090 -75.228311   7.116441  12.449841  92.187875   0.000450   0.000081 -30.920038   6.030598   2.254606 -22.185974  -0.001060   0.020050
 -2.369968   0.702144   3.939016  29.285200 -12.393347   6.686695  46.380816   1.852708   3.296684  -3.570282  -2.014738   2.793554 -18.122056   1.560356  -4.845071  -5.902907  19.086856  11.316731 -17.522129   4.985281  26.464021  -0.014512  34.613016   0.007035  -1.407535  -0.201701 -11.335260  -6.512738 -19.814554 -11.480988  -7.048075  -9.025107 -30.574393   0.009118 -34.080015   0.008727  -2.952336  -4.403678   9.947692 -78.708632  -1.385169  -5.036359  84.076543  -0.000345  -0.000071 -33.927259  -4.892604  -1.554869   0.839241   0.000803   0.000397 -74.440088   7.024434  12.297988  92.144061   0.000445   0.000074 -30.208008   5.955408   2.018771 -23.463367  -0.001938   0.018629
 -2.370753   0.703413   3.942044  28.876672 -12.353939   6.720361  45.893777   1.887664   3.199665  -3.850732  -1.986949   2.680182 -18.194230   1.526973  -4.897703  -6.842374  20.663243  11.175312 -19.367118   6.330961  25.729082  -0.018079  34.950081   0.010460  -1.620621  -0.271378 -11.292028  -7.412238 -20.935297 -11.274603  -8.581587 -10.202645 -29.510327   0.007382 -34.076011   0.007079  -3.152974  -4.414373   9.771175 -77.625024  -1.240496  -5.083145  83.628560  -0.000663  -0.000283 -34.470254  -4.893416  -1.710979  -1.216982  -0.002601  -0.001339 -73.761364   6.958297  12.126517  92.126779   0.000388   0.000061 -29.560135   5.871115   1.793992 -24.848275  -0.002667   0.017602
 -2.371619   0.704624   3.945284  28.426301 -12.341135   6.705348  45.452145   1.948647   3.111012  -4.176233  -1.937900   2.563458 -18.276873   1.498305  -4.948439  -7.764489  22.199899  11.026659 -21.106639   7.657169  25.063052  -0.020827  35.282197   0.013091  -1.805509  -0.236507 -11.292981  -8.291586 -22.028018 -11.063247 -10.024263 -11.358817 -28.515417   0.005602 -34.085973   0.005534  -3.332089  -4.505020   9.684071 -76.846556  -1.155147  -5.128917  83.651841  -0.000521  -0.000220 -34.792596  -4.944564  -1.837593  -0.916581  -0.001693  -0.001041 -73.034908   6.882879  12.005614  92.131857   0.000302   0.000049 -28.960647   5.798590   1.587361 -26.206859  -0.002975   0.016243
 -2.372485   0.706366   3.948407  27.716378 -12.246889   6.536792  45.064644   1.958791   3.148991  -4.050806  -1.903866   2.456268 -18.112766   1.374416  -4.880878  -8.759069  23.717224  10.621894 -23.554510   9.141205  24.335525  -0.042176  36.271188   0.029189  -2.131260  -1.101926 -10.784410  -9.111309 -23.031873 -10.440234 -12.197156 -12.622651 -27.269610  -0.015553 -34.633759  -0.006351  -3.672109  -3.944236   8.852577 -75.724807  -1.143867  -5.208932  83.557545  -0.000498  -0.000249 -35.086348  -5.071220  -1.840699  -0.695286  -0.001282  -0.000818 -71.987278   6.733576  11.813253  92.003989   0.000409   0.000022 -28.632143   5.773800   1.390876 -26.654765  -0.002693   0.013298
 -2.373366   0.708261   3.951616  27.068318 -12.107206   6.352258  44.626782   1.966250   3.189765  -4.017354  -1.865970   2.371231 -17.880910   1.247863  -4.810452  -9.821250  25.247837  10.095456 -25.930014  10.703238  23.599157  -0.061771  37.268616   0.042444  -2.386860  -1.607728 -10.487489 -10.022332 -24.061580  -9.663197 -14.308061 -13.951295 -25.967795  -0.035168 -35.201151  -0.016620  -3.956466  -3.663273   8.317434 -74.621796  -1.162200  -5.296071  83.403698  -0.000552  -0.000345 -35.375937  -5.223418  -1.843367  -0.516727  -0.000968  -0.000646 -70.984448   6.591017  11.619645  91.824355   0.000488  -0.000040 -28.329539   5.759582   1.210376 -27.027644  -0.002376   0.010702
 -2.374287   0.710170   3.955152  26.503900 -11.941725   6.172445  44.116540   1.974721   3.221465  -4.120503  -1.823466   2.290023 -17.652749   1.128909  -4.743811 -10.882033  26.757704   9.518596 -28.191047  12.271868  22.906681  -0.077726  38.232141   0.052631  -2.585969  -1.863649 -10.348290 -10.950276 -25.095585  -8.821661 -16.314662 -15.297810 -24.691959  -0.051421 -35.755959  -0.024942  -4.195666  -3.570101   8.037908 -73.560381  -1.197348  -5.387210  83.225968  -0.000632  -0.000452 -35.690973  -5.384909  -1.842966  -0.372158  -0.000728  -0.000511 -70.043653   6.462811  11.438269  91.634381   0.000507  -0.000125 -28.049713   5.744679   1.041394 -27.371080  -0.002066   0.008518
 -2.375258   0.712072   3.959174  26.015419 -11.763646   6.001114  43.528328   1.982391   3.241111  -4.341706  -1.778188   2.206498 -17.443002   1.018696  -4.681673 -11.909404  28.222699   8.929488 -30.327120  13.812703  22.281398  -0.089835  39.152722   0.060093  -2.748163  -1.961916 -10.307988 -11.855839 -26.112129  -7.962451 -18.203077 -16.635270 -23.480420  -0.064072 -36.290743  -0.031416  -4.404433  -3.596740   7.925840 -72.524190  -1.244789  -5.479725  83.034241  -0.000721  -0.000546 -36.047107  -5.547692  -1.837707  -0.254538  -0.000544  -0.000405 -69.147962   6.347636  11.271829  91.450649   0.000486  -0.000213 -27.789768   5.728595   0.883111 -27.693972  -0.001763   0.006721
 -2.376279   0.713991   3.963784  25.596999 -11.582098   5.840063  42.862873   1.987224   3.247441  -4.658393  -1.731907   2.118512 -17.253700   0.916868  -4.624027 -12.886232  29.626606   8.346881 -32.337118  15.304909  21.730019  -0.098379  40.027544   0.065168  -2.884684  -1.956623 -10.329823 -12.716767 -27.095028  -7.109561 -19.969338 -17.944697 -22.349209  -0.073320 -36.802312  -0.036186  -4.591136  -3.703435   7.917896 -71.497299  -1.301511  -5.571311  82.824883  -0.000821  -0.000622 -36.448890  -5.707090  -1.827603  -0.157945  -0.000401  -0.000322 -68.283853   6.243606  11.119635  91.278160   0.000448  -0.000288 -27.545015   5.712519   0.735418 -27.970424  -0.001465   0.005278
 -2.377382   0.715966   3.969023  25.244340 -11.385290   5.676937  42.123160   1.985917   3.250882  -5.052648  -1.687935   2.032883 -17.083683   0.822688  -4.569712 -13.803709  30.957124   7.779610 -34.224073  16.734492  21.250027  -0.103799  40.855790   0.068150  -3.002362  -1.882784 -10.394063 -13.522040 -28.033283  -6.274525 -21.615245 -19.213193 -21.302035  -0.079569 -37.289282  -0.039451  -4.760554  -3.864677   7.974302 -70.461945  -1.342073  -5.648415  82.587233  -0.001023  -0.000746 -36.900893  -5.825745  -1.814423  -0.074107  -0.000277  -0.000197 -67.449346   6.143105  10.982287  91.116390   0.000388  -0.000364 -27.309850   5.698066   0.598634 -28.157076  -0.001178   0.004124
 -2.378539   0.718841   3.974529  24.745403 -11.179821   5.429091  41.461453   2.064401   3.236462  -5.070582  -1.638522   2.014557 -16.662574   0.701515  -4.468956 -14.703645  32.163243   6.728724 -36.539476  17.928089  20.824984  -0.117182  41.849263   0.075347  -3.127883  -2.068398  -9.954291 -14.157166 -28.965832  -4.817084 -23.853893 -20.365492 -20.288401  -0.103160 -38.113955  -0.049949  -5.056088  -3.671062   7.351593 -69.125149  -1.402196  -5.675198  82.136479  -0.001728  -0.001271 -37.246094  -6.099712  -1.546363  -0.060594  -0.000243  -0.000157 -66.411973   6.020582  10.869196  90.758260   0.000281  -0.000661 -26.198806   5.737116   0.292439 -31.511491  -0.002468  -0.002235
